<?xml version="1.0" encoding="UTF-8"?>
<!DOCTYPE svg PUBLIC "-//W3C//DTD SVG 1.1//EN" "http://www.w3.org/Graphics/SVG/1.1/DTD/svg11.dtd">
<svg xmlns="http://www.w3.org/2000/svg" version="1.1" width="271px" height="276px" style="shape-rendering:geometricPrecision; text-rendering:geometricPrecision; image-rendering:optimizeQuality; fill-rule:evenodd; clip-rule:evenodd" xmlns:xlink="http://www.w3.org/1999/xlink">
<g><path style="opacity:1" fill="#fbfcfe" d="M 133.5,-0.5 C 134.833,-0.5 136.167,-0.5 137.5,-0.5C 160.019,12.6812 182.519,26.0145 205,39.5C 204.331,64.8298 204.498,90.1631 205.5,115.5C 227.033,127.766 248.7,139.766 270.5,151.5C 270.5,178.5 270.5,205.5 270.5,232.5C 269.78,235.06 268.113,236.893 265.5,238C 244.604,250.274 223.937,262.774 203.5,275.5C 202.167,275.5 200.833,275.5 199.5,275.5C 178.061,262.608 156.394,249.941 134.5,237.5C 112.959,250.103 91.2919,262.436 69.5,274.5C 46.1494,261.492 22.8161,248.492 -0.5,235.5C -0.5,207.5 -0.5,179.5 -0.5,151.5C 21.1026,140.031 42.4359,128.031 63.5,115.5C 64.3332,90.1732 64.8332,64.8399 65,39.5C 87.9784,26.2663 110.812,12.9329 133.5,-0.5 Z"/></g>
<g><path style="opacity:1" fill="#5c76b8" d="M 70.5,43.5 C 70.169,68.339 70.5023,93.0056 71.5,117.5C 71.44,118.043 71.1067,118.376 70.5,118.5C 69.171,93.3366 69.171,68.3366 70.5,43.5 Z"/></g>
<g><path style="opacity:1" fill="#1687da" d="M 134.5,81.5 C 134.5,56.8333 134.5,32.1667 134.5,7.5C 134.897,6.47498 135.563,6.30831 136.5,7C 157.002,19.4188 177.669,31.5854 198.5,43.5C 199.666,68.4933 199.833,93.4933 199,118.5C 177.69,105.764 156.19,93.4305 134.5,81.5 Z"/></g>
<g><path style="opacity:1" fill="#042b91" d="M 134.5,7.5 C 134.5,32.1667 134.5,56.8333 134.5,81.5C 113.698,93.7376 92.6981,105.738 71.5,117.5C 70.5023,93.0056 70.169,68.339 70.5,43.5C 91.5945,31.0715 112.928,19.0715 134.5,7.5 Z"/></g>
<g><path style="opacity:1" fill="#1788da" d="M 69.5,193.5 C 47.9686,206.098 26.3019,218.432 4.5,230.5C 4.33336,205.831 4.50003,181.164 5,156.5C 26.1698,143.914 47.5032,131.581 69,119.5C 69.5,144.164 69.6666,168.831 69.5,193.5 Z"/></g>
<g><path style="opacity:1" fill="#0c2e92" d="M 102.5,120.5 C 108.842,120.334 115.175,120.5 121.5,121C 128.666,123.834 131.166,129.001 129,136.5C 128.363,138.303 127.197,139.636 125.5,140.5C 132.603,144.684 134.436,150.684 131,158.5C 128.441,161.531 125.274,163.698 121.5,165C 115.175,165.5 108.842,165.666 102.5,165.5C 102.5,150.5 102.5,135.5 102.5,120.5 Z"/></g>
<g><path style="opacity:1" fill="#153194" d="M 139.5,120.5 C 142.5,120.5 145.5,120.5 148.5,120.5C 148.334,126.842 148.5,133.175 149,139.5C 153.378,133.245 157.878,127.078 162.5,121C 165.882,120.176 169.216,120.343 172.5,121.5C 167.041,128.26 161.708,135.094 156.5,142C 161.381,150.219 167.047,157.886 173.5,165C 169.789,165.825 166.122,165.659 162.5,164.5C 158.192,158.359 153.692,152.359 149,146.5C 148.5,152.825 148.334,159.158 148.5,165.5C 145.5,165.5 142.5,165.5 139.5,165.5C 139.5,150.5 139.5,135.5 139.5,120.5 Z"/></g>
<g><path style="opacity:1" fill="#042b91" d="M 200.5,119.5 C 221.806,131.822 243.139,144.155 264.5,156.5C 265.15,181.491 265.15,206.491 264.5,231.5C 243.279,219.305 222.112,206.971 201,194.5C 200.5,169.502 200.333,144.502 200.5,119.5 Z"/></g>
<g><path style="opacity:1" fill="#f6f7fb" d="M 111.5,128.5 C 113.857,128.337 116.19,128.503 118.5,129C 122.108,130.957 122.441,133.457 119.5,136.5C 116.916,137.393 114.249,137.726 111.5,137.5C 111.5,134.5 111.5,131.5 111.5,128.5 Z"/></g>
<g><path style="opacity:1" fill="#f5f6fa" d="M 111.5,145.5 C 116.535,144.502 120.702,145.835 124,149.5C 124.764,153.244 123.264,155.577 119.5,156.5C 116.833,156.5 114.167,156.5 111.5,156.5C 111.5,152.833 111.5,149.167 111.5,145.5 Z"/></g>
<g><path style="opacity:1" fill="#8395c8" d="M 111.5,145.5 C 111.5,149.167 111.5,152.833 111.5,156.5C 114.167,156.5 116.833,156.5 119.5,156.5C 116.713,157.477 113.713,157.81 110.5,157.5C 110.183,153.298 110.517,149.298 111.5,145.5 Z"/></g>
<g><path style="opacity:1" fill="#a7d1f1" d="M 94.5,175.5 C 97.6248,174.521 100.958,174.187 104.5,174.5C 104.5,175.833 104.5,177.167 104.5,178.5C 103.5,178.5 102.5,178.5 101.5,178.5C 101.818,183.032 101.485,187.366 100.5,191.5C 100.5,186.833 100.5,182.167 100.5,177.5C 101.675,177.719 102.675,177.386 103.5,176.5C 100.572,175.516 97.5719,175.183 94.5,175.5 Z"/></g>
<g><path style="opacity:1" fill="#278cdc" d="M 94.5,175.5 C 97.5719,175.183 100.572,175.516 103.5,176.5C 102.675,177.386 101.675,177.719 100.5,177.5C 100.5,182.167 100.5,186.833 100.5,191.5C 99.5,191.5 98.5,191.5 97.5,191.5C 97.5,187.167 97.5,182.833 97.5,178.5C 96.1667,178.5 94.8333,178.5 93.5,178.5C 93.2627,177.209 93.596,176.209 94.5,175.5 Z"/></g>
<g><path style="opacity:1" fill="#228bdc" d="M 106.5,175.5 C 109.518,175.335 112.518,175.502 115.5,176C 119.021,182.443 117.021,185.61 109.5,185.5C 109.5,187.5 109.5,189.5 109.5,191.5C 108.5,191.5 107.5,191.5 106.5,191.5C 106.5,186.167 106.5,180.833 106.5,175.5 Z"/></g>
<g><path style="opacity:1" fill="#1a89db" d="M 127.5,175.5 C 128.5,175.5 129.5,175.5 130.5,175.5C 130.5,177.5 130.5,179.5 130.5,181.5C 132.833,181.5 135.167,181.5 137.5,181.5C 137.5,179.5 137.5,177.5 137.5,175.5C 138.5,175.5 139.5,175.5 140.5,175.5C 140.5,180.833 140.5,186.167 140.5,191.5C 139.5,191.5 138.5,191.5 137.5,191.5C 137.5,189.167 137.5,186.833 137.5,184.5C 135.167,184.5 132.833,184.5 130.5,184.5C 130.5,186.833 130.5,189.167 130.5,191.5C 129.5,191.5 128.5,191.5 127.5,191.5C 127.5,186.167 127.5,180.833 127.5,175.5 Z"/></g>
<g><path style="opacity:1" fill="#3492de" d="M 149.5,174.5 C 153.937,173.892 157.603,175.225 160.5,178.5C 159.833,178.833 159.167,179.167 158.5,179.5C 151.443,175.763 147.61,177.763 147,185.5C 150.108,190.066 153.942,190.733 158.5,187.5C 159.167,187.833 159.833,188.167 160.5,188.5C 154.211,194.313 148.711,193.646 144,186.5C 142.873,181.089 144.707,177.089 149.5,174.5 Z"/></g>
<g><path style="opacity:1" fill="#74b6e9" d="M 168.5,175.5 C 167.167,175.5 165.833,175.5 164.5,175.5C 164.172,180.875 164.505,186.208 165.5,191.5C 166.327,187.541 166.827,183.541 167,179.5C 167.717,180.044 168.217,180.711 168.5,181.5C 167.518,184.962 167.185,188.629 167.5,192.5C 166.167,192.5 164.833,192.5 163.5,192.5C 163.5,186.5 163.5,180.5 163.5,174.5C 165.415,174.216 167.081,174.549 168.5,175.5 Z"/></g>
<g><path style="opacity:1" fill="#288ddc" d="M 168.5,175.5 C 169.952,179.159 171.619,182.825 173.5,186.5C 174.993,182.657 176.66,178.99 178.5,175.5C 179.833,175.5 181.167,175.5 182.5,175.5C 182.5,180.833 182.5,186.167 182.5,191.5C 181.5,191.5 180.5,191.5 179.5,191.5C 179.925,178.576 178.592,178.576 175.5,191.5C 174.167,191.5 172.833,191.5 171.5,191.5C 170.508,188.177 169.508,184.844 168.5,181.5C 168.217,180.711 167.717,180.044 167,179.5C 166.827,183.541 166.327,187.541 165.5,191.5C 164.505,186.208 164.172,180.875 164.5,175.5C 165.833,175.5 167.167,175.5 168.5,175.5 Z"/></g>
<g><path style="opacity:1" fill="#91c6ee" d="M 178.5,175.5 C 179.919,174.549 181.585,174.216 183.5,174.5C 183.5,180.5 183.5,186.5 183.5,192.5C 181.901,192.768 180.568,192.434 179.5,191.5C 180.5,191.5 181.5,191.5 182.5,191.5C 182.5,186.167 182.5,180.833 182.5,175.5C 181.167,175.5 179.833,175.5 178.5,175.5 Z"/></g>
<g><path style="opacity:1" fill="#f4f9fd" d="M 109.5,178.5 C 111.665,178.116 113.332,178.783 114.5,180.5C 113.332,182.217 111.665,182.884 109.5,182.5C 109.5,181.167 109.5,179.833 109.5,178.5 Z"/></g>
<g><path style="opacity:1" fill="#2b8fdd" d="M 120.5,188.5 C 121.5,188.5 122.5,188.5 123.5,188.5C 123.5,189.5 123.5,190.5 123.5,191.5C 122.5,191.5 121.5,191.5 120.5,191.5C 120.5,190.5 120.5,189.5 120.5,188.5 Z"/></g>
<g><path style="opacity:1" fill="#052b91" d="M 69.5,193.5 C 90.7701,206.14 112.103,218.807 133.5,231.5C 113.833,243 94.1667,254.5 74.5,266C 72.3502,267.59 70.0168,268.257 67.5,268C 46.3299,255.637 25.3299,243.137 4.5,230.5C 26.3019,218.432 47.9686,206.098 69.5,193.5 Z"/></g>
<g><path style="opacity:1" fill="#1b88da" d="M 200.5,119.5 C 200.333,144.502 200.5,169.502 201,194.5C 222.112,206.971 243.279,219.305 264.5,231.5C 243.158,243.986 221.658,256.319 200,268.5C 178.27,256.386 156.77,243.886 135.5,231C 156.5,219.167 177.5,207.333 198.5,195.5C 199.167,170.003 199.833,144.67 200.5,119.5 Z"/></g>
</svg>
